<?xml version="1.0" encoding="UTF-8"?>
<svg id="Layer_2" data-name="Layer 2" xmlns="http://www.w3.org/2000/svg" viewBox="0 0 256.01 256.02">
  <g id="Layer_1-2" data-name="Layer 1">
    <path d="M128.17,0c70.77,.08,127.99,57.51,127.84,128.3-.15,70.65-57.52,127.82-128.17,127.72C57.06,255.91-.12,198.52,0,127.72,.12,57.08,57.49-.08,128.17,0Zm107.82,128c0-59.61-48.23-107.88-107.87-107.99-59.65-.1-108.11,48.3-108.11,107.99,0,59.58,48.24,107.88,107.86,107.99,59.64,.11,108.12-48.31,108.12-107.99Z"/>
    <path d="M137.99,181.58c-.03,5.2-3.84,9.39-8.78,9.92-5.21,.56-9.76-2.65-10.96-7.77-.17-.72-.25-1.48-.25-2.22-.01-21.41-.03-42.82,0-64.22,0-4.55,2.84-8.37,6.95-9.66,4.19-1.31,8.94,.13,11.18,3.91,1.09,1.83,1.75,4.19,1.79,6.33,.18,10.49,.12,52.98,.06,63.72Z"/>
    <path d="M127.99,67.96c7.5,0,13.51,5.98,13.52,13.44,0,7.43-6.08,13.54-13.48,13.55-7.4,.01-13.51-6.1-13.52-13.51,0-7.47,6-13.48,13.48-13.48Z"/>
  </g>
</svg>