<?xml version="1.0" encoding="UTF-8"?><svg id="a" xmlns="http://www.w3.org/2000/svg" viewBox="0 0 600 63"><defs><style>.b{fill:#264653;}</style></defs><path class="b" d="m0,7.19h62.25v13.62l-38.71,28.03h38.71v13.62H0v-13.62l38.79-28.03H0V7.19Z"/><path class="b" d="m76.92,56.08c-5.65-4.26-8.48-10.31-8.48-18.15s2.83-13.9,8.48-18.15,13.69-6.39,24.11-6.39,18.54,2.13,24.19,6.39c5.65,4.26,8.48,10.31,8.48,18.15s-2.83,13.9-8.48,18.15-13.72,6.39-24.19,6.39-18.46-2.13-24.11-6.39Zm36.93-8.67c2.81-2.04,4.22-5.2,4.22-9.48s-1.42-7.44-4.26-9.49c-2.84-2.04-7.1-3.06-12.77-3.06s-9.92,1.02-12.74,3.06c-2.81,2.04-4.22,5.2-4.22,9.49s1.4,7.44,4.22,9.48c2.81,2.04,7.06,3.06,12.74,3.06s10-1.02,12.81-3.06Z"/><path class="b" d="m185.03,49.42c2.48-1.06,4.21-2.56,5.19-4.53h14.94c-1.55,5.68-4.9,10.02-10.06,13.05-5.16,3.02-12.21,4.53-21.14,4.53-10.27,0-18.35-2.09-24.23-6.27s-8.82-10.27-8.82-18.27c0-5.31,1.38-9.82,4.14-13.51,2.76-3.69,6.57-6.45,11.42-8.28s10.43-2.75,16.72-2.75c10.06,0,17.98,2.23,23.77,6.7,5.78,4.47,8.67,11.34,8.67,20.63h-49.39c.57,3.71,2.35,6.36,5.34,7.94s7.28,2.36,12.85,2.36c4.59,0,8.13-.53,10.61-1.59Zm-22.61-23.61c-2.74,1.32-4.6,3.44-5.58,6.39h33.06c-.98-2.94-2.85-5.07-5.61-6.39-2.76-1.32-6.46-1.98-11.11-1.98s-8.03.66-10.76,1.98Z"/><path class="b" d="m283.74,30.73l18.89-23.54h20.13l-30.89,36.93v18.35h-16.18v-18.35l-30.97-36.93h20.13l18.89,23.54Z"/><path class="b" d="m370.6,16.29c4.23,1.58,7.41,4.12,9.52,7.63s3.2,8.18,3.25,14.01v23.54h-14.94v-5.96c-4.18,2.27-8.69,4-13.51,5.19-4.83,1.19-9.61,1.78-14.36,1.78-6.76,0-12.03-1.2-15.8-3.6s-5.65-6.21-5.65-11.42c0-5.68,2.55-9.74,7.66-12.19s11.56-3.68,19.35-3.68c7.07,0,14.5.93,22.3,2.78-.21-3.66-1.86-6.16-4.96-7.51s-6.97-2.01-11.61-2.01c-3.92,0-7.94.3-12.04.89-4.1.6-8.79,1.56-14.05,2.9l-2.87-10.53c11.04-2.78,21.53-4.18,31.43-4.18,6.61,0,12.03.79,16.26,2.36Zm-14.2,34.06c4.36-.8,8.37-1.69,12.04-2.67v-3.95c-7.12-1.55-13.94-2.32-20.44-2.32-4.49,0-7.81.41-9.95,1.24s-3.21,2.17-3.21,4.03.85,3.13,2.55,3.83c1.7.7,4.44,1.05,8.21,1.05,2.84,0,6.44-.4,10.8-1.2Z"/><path class="b" d="m452.48,20.51c4.26,3.71,6.41,9.7,6.46,17.96v24h-14.86v-18.97c0-5.52-1.22-9.57-3.64-12.16-2.43-2.58-6.63-3.87-12.62-3.87-6.3,0-11.23,1.42-14.79,4.26-3.56,2.84-5.34,7.05-5.34,12.62v18.12h-14.94V16.48h14.94v10.53c3.04-3.87,6.72-6.85,11.03-8.94,4.31-2.09,9.54-3.14,15.68-3.14,7.79,0,13.82,1.86,18.08,5.58Z"/><path class="b" d="m510.97,16.48h23.3l-27.72,19.59,27.72,26.4h-19.43l-19.2-18.58-11.3,7.97v10.61h-14.94V.53h14.94v35l26.63-19.05Z"/><path class="b" d="m543.21,56.08c-5.65-4.26-8.48-10.31-8.48-18.15s2.83-13.9,8.48-18.15c5.65-4.26,13.69-6.39,24.11-6.39s18.54,2.13,24.19,6.39,8.48,10.31,8.48,18.15-2.83,13.9-8.48,18.15c-5.65,4.26-13.72,6.39-24.19,6.39s-18.46-2.13-24.11-6.39Zm36.93-8.67c2.81-2.04,4.22-5.2,4.22-9.48s-1.42-7.44-4.26-9.49c-2.84-2.04-7.1-3.06-12.77-3.06s-9.92,1.02-12.74,3.06c-2.81,2.04-4.22,5.2-4.22,9.49s1.4,7.44,4.22,9.48c2.81,2.04,7.06,3.06,12.74,3.06s10-1.02,12.81-3.06Z"/></svg>